<?xml version="1.0"?>
<svg xmlns="http://www.w3.org/2000/svg" xmlns:xlink="http://www.w3.org/1999/xlink" version="1.1" id="Capa_1" x="0px" y="0px" viewBox="0 0 510.037 510.037" style="enable-background:new 0 0 510.037 510.037;" xml:space="preserve" width="512px" height="512px"><g><g>
	<g>
		<path d="M490.499,202.018h-27v-54c0-11-9-20-20-20h-195l-26-42c-4-6-9-10-16-10h-145c-11,0-19,9-19,20v106    h-22c-12,0-23,11-20,24l42,192c2,9,10,16,19,16h382c9,0,18-6,20-15l46-193C512.499,213.018,502.499,202.018,490.499,202.018z     M81.5,115.018h113l26,43c4,6,10,9,17,9h187v35h-343V115.018z M428.499,394.018h-351l-33-153h421L428.499,394.018z" data-original="#010002" class="active-path" data-old_color="#eb5501" fill="#eb5501"/>
	</g>
</g></g> </svg>
