<?xml version="1.0"?>
<svg xmlns="http://www.w3.org/2000/svg" xmlns:xlink="http://www.w3.org/1999/xlink" version="1.1" id="Capa_1" x="0px" y="0px" viewBox="0 0 486 486" style="enable-background:new 0 0 486 486;" xml:space="preserve" width="512px" height="512px" class=""><g><g>
	<g>
		<path d="M452.5,285c15,0,27,12,27,27v147c0,15-12,27-27,27h-418c-15,0-28-12-28-27V312c0-15,13-27,28-27    s27,12,27,27v119h364V312C425.5,297,437.5,285,452.5,285z" data-original="#090509" class="active-path" data-old_color="#eb5501" fill="#eb5501"/>
		<path d="M152.5,156c-11,11-27,11-38,0s-11-27,0-38l110-110c5-5,12-8,19-8s14,3,19,8l110,110    c11,11,11,27,0,38c-5,5-12,8-19,8s-15-3-20-8l-63-63v234c0,15-12,27-27,27s-27-12-27-27V93L152.5,156z" data-original="#090509" class="active-path" data-old_color="#eb5501" fill="#eb5501"/>
	</g>
</g></g> </svg>
